<svg xmlns="http://www.w3.org/2000/svg" width="153" height="80" viewBox="0 0 153 80">
  <g fill="none" fill-rule="evenodd" transform="translate(30 16)">
    <path fill="#D8EDFF" d="M4.054,5.982 C1.845,5.982 0.054,7.773 0.054,9.982 L0.054,37.982 C0.054,40.191 1.845,41.982 4.054,41.982 L40.054,41.982 L43.054,23.482 L40.054,5.982 L4.054,5.982 Z"/>
    <path fill="#FFF" d="M89.054,0.982 L44.054,0.982 C41.845,0.982 40.054,2.773 40.054,4.982 L40.054,42.982 C40.054,45.191 41.845,46.982 44.054,46.982 L81.905,46.982 L85.201,44.982 L87.721,46.982 L89.054,46.982 C91.263,46.982 93.054,45.191 93.054,42.982 L93.054,4.982 C93.054,2.773 91.263,0.982 89.054,0.982"/>
    <path fill="#BDE0FF" d="M61.054 29.982L50.054 29.982C48.397 29.982 47.054 28.639 47.054 26.982L47.054 12.982C47.054 11.325 48.397 9.982 50.054 9.982L61.054 9.982C62.711 9.982 64.054 11.325 64.054 12.982L64.054 26.982C64.054 28.639 62.711 29.982 61.054 29.982M83.054 29.982L72.054 29.982C70.397 29.982 69.054 28.639 69.054 26.982L69.054 12.982C69.054 11.325 70.397 9.982 72.054 9.982L83.054 9.982C84.711 9.982 86.054 11.325 86.054 12.982L86.054 26.982C86.054 28.639 84.711 29.982 83.054 29.982"/>
    <path fill="#9ED1FF" d="M62.054,37.982 L49.054,37.982 C48.502,37.982 48.054,37.535 48.054,36.982 C48.054,36.429 48.502,35.982 49.054,35.982 L62.054,35.982 C62.606,35.982 63.054,36.429 63.054,36.982 C63.054,37.535 62.606,37.982 62.054,37.982"/>
    <path fill="#BDE0FF" d="M35.054,18.982 C35.054,22.295 32.368,24.982 29.054,24.982 C25.74,24.982 23.054,22.295 23.054,18.982 C23.054,15.669 25.74,12.982 29.054,12.982 C32.368,12.982 35.054,15.669 35.054,18.982"/>
    <path fill="#9ED1FF" d="M24.035 30.9986C23.483 30.9986 23.036 30.5526 23.035 30.0006 23.034 29.4476 23.481 28.9996 24.033 28.9986L34.052 28.9816 34.054 28.9816C34.606 28.9816 35.053 29.4286 35.054 29.9796 35.055 30.5326 34.608 30.9806 34.056 30.9816L24.037 30.9986 24.035 30.9986zM32.054 35.982L26.054 35.982C25.502 35.982 25.054 35.535 25.054 34.982 25.054 34.429 25.502 33.982 26.054 33.982L32.054 33.982C32.606 33.982 33.054 34.429 33.054 34.982 33.054 35.535 32.606 35.982 32.054 35.982"/>
    <path fill="#BDE0FF" d="M18.054,18.982 C18.054,22.295 15.368,24.982 12.054,24.982 C8.74,24.982 6.054,22.295 6.054,18.982 C6.054,15.669 8.74,12.982 12.054,12.982 C15.368,12.982 18.054,15.669 18.054,18.982"/>
    <path fill="#9ED1FF" d="M7.035 30.9986C6.483 30.9986 6.036 30.5526 6.035 30.0006 6.034 29.4476 6.481 28.9996 7.033 28.9986L17.052 28.9816 17.054 28.9816C17.606 28.9816 18.053 29.4286 18.054 29.9796 18.055 30.5326 17.608 30.9806 17.056 30.9816L7.037 30.9986 7.035 30.9986zM15.054 35.982L9.054 35.982C8.502 35.982 8.054 35.535 8.054 34.982 8.054 34.429 8.502 33.982 9.054 33.982L15.054 33.982C15.606 33.982 16.054 34.429 16.054 34.982 16.054 35.535 15.606 35.982 15.054 35.982"/>
    <path fill="#D8EDFF" d="M101.054,42.982 C101.054,37.46 96.577,32.982 91.054,32.982 C88.258,32.982 85.73,34.129 83.915,35.979 L84.124,36.889 L82.395,37.977 C81.542,39.449 81.054,41.159 81.054,42.982 C81.054,44.408 81.365,45.756 81.905,46.982 L100.203,46.982 C100.743,45.756 101.054,44.408 101.054,42.982"/>
    <path fill="#9ED1FF" d="M71.054,35.982 C70.502,35.982 70.054,36.429 70.054,36.982 C70.054,37.535 70.502,37.982 71.054,37.982 L82.403,37.982 C83.221,37.773 83.918,37.174 83.918,35.982 L71.054,35.982 Z"/>
    <path fill="#75BEFF" d="M85.054,36.982 C85.054,36.429 84.606,35.982 84.054,35.982 L83.918,35.982 C83.332,36.58 82.825,37.253 82.403,37.982 L84.054,37.982 C84.606,37.982 85.054,37.535 85.054,36.982"/>
    <path fill="#FFF" d="M93.1705,43.6373 C92.9055,43.6373 92.6505,43.5323 92.4635,43.3443 L89.8125,40.6943 C89.4225,40.3033 89.4225,39.6703 89.8125,39.2803 C90.2025,38.8893 90.8365,38.8893 91.2265,39.2803 L93.1695,41.2223 L97.3175,37.0673 C97.7075,36.6743 98.3405,36.6763 98.7315,37.0653 C99.1225,37.4553 99.1225,38.0883 98.7325,38.4793 L93.8785,43.3433 C93.6905,43.5323 93.4365,43.6373 93.1705,43.6373 Z"/>
  </g>
</svg>
