<svg xmlns="http://www.w3.org/2000/svg" width="153" height="80" viewBox="0 0 153 80">
  <g fill="none" fill-rule="evenodd" transform="translate(35 12)">
    <path fill="#6C48EF" d="M78,0 L42.333,0 L32,0 C29.791,0 28,1.791 28,4 L28,36 C28,38.209 29.791,40 32,40 L42.333,40 L59.635,40 L62.516,36 L66,40 L78,40 C80.209,40 82,38.209 82,36 L82,4 C82,1.791 80.209,0 78,0"/>
    <path fill="#C4B5F8" d="M67.4285 23.4561C67.4265 23.4821 67.4155 23.5051 67.4155 23.5311L67.4155 24.3871C67.4155 26.5021 65.6955 28.2231 63.5805 28.2231L62.2955 28.2231C60.8885 28.2231 59.7435 27.0771 59.7435 25.6701 59.7435 24.2621 60.8905 23.1131 62.3005 23.1131L67.4285 23.1131 67.4285 23.4561zM64.5985 14.1661L63.7475 14.1661C61.4525 14.1661 59.7545 14.9691 58.6975 16.5531 58.3045 17.1401 58.4635 17.9341 59.0515 18.3251 59.6355 18.7151 60.4305 18.5581 60.8245 17.9711 61.1805 17.4351 61.8735 16.7231 63.7475 16.7231L64.5985 16.7231C66.1585 16.7231 67.4285 17.9921 67.4285 19.5511L67.4285 20.5581 62.3005 20.5581C59.4805 20.5581 57.1875 22.8511 57.1875 25.6701 57.1875 28.4861 59.4785 30.7781 62.2955 30.7781L63.5805 30.7781C65.0315 30.7781 66.3545 30.2741 67.4285 29.4571L67.4285 29.5001C67.4285 30.2071 68.0005 30.7781 68.7065 30.7781 69.4135 30.7781 69.9855 30.2071 69.9855 29.5001L69.9855 19.5511C69.9855 16.5811 67.5685 14.1661 64.5985 14.1661L64.5985 14.1661zM55.925 28.6602L55.698 28.6602 48.717 9.8852C48.602 9.5782 48.37 9.3462 48.09 9.2032 47.9 9.0862 47.689 9.0002 47.449 9.0002L44.511 9.0002C43.824 9.0002 43.267 9.5562 43.267 10.2442 43.267 10.9312 43.824 11.4872 44.511 11.4872L44.634 11.4872 38.254 28.6602 38.028 28.6602C37.341 28.6602 36.784 29.2172 36.784 29.9042 36.784 30.5912 37.341 31.1472 38.028 31.1472L41.061 31.1472C41.748 31.1472 42.305 30.5912 42.305 29.9042 42.305 29.2172 41.748 28.6602 41.061 28.6602L40.982 28.6602 42.567 24.3962 51.384 24.3962 52.97 28.6602 52.891 28.6602C52.204 28.6602 51.647 29.2172 51.647 29.9042 51.647 30.5912 52.204 31.1472 52.891 31.1472L55.925 31.1472C56.612 31.1472 57.169 30.5912 57.169 29.9042 57.169 29.2172 56.612 28.6602 55.925 28.6602"/>
    <path fill="#5834DB" d="M65.7212 20.5576C65.1412 19.0636 63.6992 17.9996 62.0002 17.9996L60.0002 20.5876C60.1012 20.5816 62.1972 20.5576 62.3002 20.5576L65.7212 20.5576zM62 23.1445L60 28.1925C58 27.9995 63.581 28.2225 63.581 28.2225 64.502 28.2225 65.338 27.8815 66 27.3375L66 23.1135 62.3 23.1135C62.197 23.1135 62.1 23.1325 62 23.1445M62.2954 30.7783C62.1944 30.7783 62.0994 30.7543 62.0004 30.7493L60.0004 40.0003 66.0004 40.0003 66.0004 30.2663C65.2534 30.5833 64.4434 30.7783 63.5814 30.7783L62.2954 30.7783z"/>
    <path fill="#AE9AF6" d="M62.3003 23.1133L66.0003 23.1133 66.0003 22.0003C66.0003 21.4903 65.8953 21.0063 65.7213 20.5573L62.3003 20.5573C62.1973 20.5573 62.1013 20.5823 62.0003 20.5883L60.0003 23.1443C60.0993 23.1333 62.1973 23.1133 62.3003 23.1133M63.5811 28.2227L62.2951 28.2227C62.1941 28.2227 62.0981 28.2037 62.0001 28.1927L60.0001 30.7487C60.1001 30.7537 62.1941 30.7787 62.2951 30.7787L63.5811 30.7787C64.4441 30.7787 65.2531 30.5827 66.0001 30.2667L66.0001 27.3377C65.3381 27.8817 64.5021 28.2227 63.5811 28.2227"/>
    <path fill="#4BAAFF" d="M14,13 L4,13 C1.791,13 0,14.791 0,17 L0,41 L16,42 L14,13 Z"/>
    <path fill="#9ED1FF" d="M0,41 L0,51 C0,53.209 1.791,55 4,55 L14,55 L16,41 L0,41 Z"/>
    <path fill="#FFF" d="M58,13 L14,13 L14,55 L58,55 C60.209,55 62,53.209 62,51 L62,17 C62,14.791 60.209,13 58,13"/>
    <path fill="#9ED1FF" d="M25.606 36.3047L28.875 27.5457 32.147 36.3047 25.606 36.3047zM30.535 24.8457C30.353 24.3577 29.886 24.0337 29.364 24.0337L28.386 24.0337C27.864 24.0337 27.397 24.3577 27.214 24.8457L20.82 41.9757C20.579 42.6227 20.907 43.3427 21.555 43.5837 22.201 43.8267 22.921 43.4967 23.163 42.8507L24.673 38.8047 33.08 38.8047 34.592 42.8507C34.779 43.3537 35.256 43.6627 35.763 43.6627 35.908 43.6627 36.056 43.6377 36.2 43.5837 36.847 43.3427 37.175 42.6217 36.934 41.9757L30.535 24.8457zM45.5146 40.9473C43.3206 40.9473 41.5356 39.1623 41.5356 36.9683 41.5356 34.7743 43.3206 32.9893 45.5146 32.9893 47.7086 32.9893 49.4936 34.7743 49.4936 36.9683 49.4936 39.1623 47.7086 40.9473 45.5146 40.9473M50.7436 30.2103C50.0526 30.2103 49.4936 30.7693 49.4936 31.4603L49.4936 31.8663C48.3936 31.0073 47.0146 30.4893 45.5146 30.4893 41.9416 30.4893 39.0356 33.3953 39.0356 36.9683 39.0356 40.5413 41.9416 43.4473 45.5146 43.4473 47.0146 43.4473 48.3936 42.9293 49.4936 42.0703L49.4936 42.4773C49.4936 43.1683 50.0526 43.7273 50.7436 43.7273 51.4336 43.7273 51.9936 43.1683 51.9936 42.4773L51.9936 31.4603C51.9936 30.7693 51.4336 30.2103 50.7436 30.2103"/>
  </g>
</svg>
