<svg xmlns="http://www.w3.org/2000/svg" width="153" height="80" viewBox="0 0 153 80">
  <g fill="none" fill-rule="evenodd" transform="translate(32 9)">
    <path fill="#1791FF" d="M30,8.5 L29.206,8.5 C28.939,8.5 28.712,8.318 28.635,8.063 C28.469,7.506 28.247,6.974 27.975,6.472 C27.848,6.236 27.881,5.947 28.07,5.759 L28.632,5.196 C29.022,4.806 29.022,4.173 28.632,3.782 L27.218,2.368 C26.827,1.978 26.194,1.978 25.803,2.368 L25.242,2.93 C25.052,3.119 24.764,3.151 24.529,3.024 C24.026,2.753 23.494,2.531 22.937,2.364 C22.681,2.288 22.5,2.062 22.5,1.794 L22.5,1 C22.5,0.447 22.052,0 21.5,0 L19.5,0 C18.948,0 18.5,0.447 18.5,1 L18.5,1.794 C18.5,2.062 18.319,2.288 18.063,2.364 C17.506,2.531 16.974,2.753 16.472,3.024 C16.236,3.151 15.948,3.119 15.759,2.93 L15.197,2.368 C14.806,1.978 14.173,1.978 13.782,2.368 L12.368,3.782 C11.978,4.173 11.978,4.806 12.368,5.196 L13.25,6.079 C12.798,6.819 12.456,7.633 12.247,8.5 L11,8.5 C10.448,8.5 10,8.947 10,9.5 L10,11.5 C10,12.053 10.448,12.5 11,12.5 L12.247,12.5 C12.456,13.367 12.798,14.181 13.25,14.921 L12.368,15.803 C11.978,16.193 11.978,16.827 12.368,17.218 L13.783,18.632 C14.173,19.022 14.806,19.022 15.197,18.632 L16.079,17.749 C16.819,18.202 17.633,18.544 18.5,18.753 L18.5,20 C18.5,20.553 18.948,21 19.5,21 L21.5,21 C22.052,21 22.5,20.553 22.5,20 L22.5,18.753 C23.367,18.544 24.181,18.202 24.921,17.749 L25.803,18.632 C26.194,19.022 26.827,19.022 27.218,18.632 L28.632,17.218 C29.022,16.827 29.022,16.193 28.632,15.803 L28.07,15.241 C27.881,15.052 27.848,14.764 27.975,14.528 C28.247,14.026 28.469,13.494 28.635,12.937 C28.712,12.681 28.939,12.5 29.206,12.5 L30,12.5 C30.552,12.5 31,12.053 31,11.5 L31,9.5 C31,8.947 30.552,8.5 30,8.5"/>
    <path fill="#FFF" d="M66,58 L24,58 C21.239,58 19,55.762 19,53 L19,31.958 L22,24 L19,19.5 L19,11 C19,8.238 21.239,6 24,6 L66,6 C68.761,6 71,8.238 71,11 L71,53 C71,55.762 68.761,58 66,58"/>
    <path fill="#1791FF" d="M54.793,31.2441 L50.678,21.8401 L39.332,21.8401 L35.208,31.2431 C34.907,31.9281 34.934,32.7131 35.28,33.3771 L42.407,47.0311 C42.579,47.6031 43.096,48.0001 43.692,48.0001 L44,48.0001 L44,35.7231 C43.405,35.3761 43,34.7381 43,34.0001 C43,32.8951 43.896,32.0001 45,32.0001 C46.105,32.0001 47,32.8951 47,34.0001 C47,34.7381 46.595,35.3761 46,35.7231 L46,48.0001 L46.317,48.0001 C46.914,48.0001 47.431,47.6031 47.603,47.0311 L54.721,33.3751 C55.066,32.7131 55.093,31.9301 54.793,31.2441"/>
    <path fill="#9ED1FF" d="M50.5,22 L39.5,22 C38.672,22 38,21.328 38,20.5 L38,17.5 C38,16.672 38.672,16 39.5,16 L50.5,16 C51.328,16 52,16.672 52,17.5 L52,20.5 C52,21.328 51.328,22 50.5,22"/>
    <path fill="#D8EDFF" d="M27.0078,20 L26.0198,20 C25.5878,20 25.2228,19.711 25.0858,19.301 C24.9328,18.843 24.7488,18.398 24.5338,17.972 C24.3438,17.594 24.3968,17.139 24.6958,16.84 L25.4048,16.131 C25.7928,15.743 25.7928,15.115 25.4048,14.728 L23.2728,12.595 C22.8848,12.207 22.2578,12.207 21.8698,12.595 L21.1808,13.284 C20.8688,13.596 20.3968,13.65 20.0028,13.453 C19.6808,13.292 19.3398,13.168 18.9998,13.041 L18.9998,31.958 C19.3398,31.831 19.6818,31.708 20.0028,31.547 C20.3968,31.35 20.8688,31.404 21.1798,31.716 L21.8698,32.405 C22.2578,32.793 22.8848,32.793 23.2728,32.405 L25.4048,30.272 C25.7928,29.885 25.7928,29.257 25.4048,28.869 L24.6958,28.16 C24.3968,27.86 24.3438,27.406 24.5338,27.027 C24.7478,26.602 24.9328,26.157 25.0858,25.699 C25.2228,25.289 25.5878,25 26.0198,25 L27.0078,25 C27.5558,25 27.9998,24.556 27.9998,24.008 L27.9998,20.992 C27.9998,20.444 27.5558,20 27.0078,20"/>
    <path fill="#6C48EF" d="M25,21.0078 L25,17.9918 C25,17.4448 24.556,16.9998 24.008,16.9998 L23.02,16.9998 C22.588,16.9998 22.223,16.7108 22.086,16.3008 C21.933,15.8428 21.748,15.3988 21.534,14.9718 C21.344,14.5938 21.396,14.1388 21.696,13.8398 L22.405,13.1308 C22.792,12.7428 22.792,12.1148 22.405,11.7278 L20.273,9.5948 C19.885,9.2068 19.257,9.2068 18.87,9.5948 L18.18,10.2838 C17.869,10.5958 17.397,10.6508 17.003,10.4528 C16.559,10.2308 16.097,10.0398 15.618,9.8838 C15.195,9.7458 14.902,9.3628 14.92,8.9188 L14.957,8.0328 C14.98,7.4698 14.53,6.9998 13.966,6.9998 L11.034,6.9998 C10.47,6.9998 10.02,7.4698 10.043,8.0328 L10.08,8.9188 C10.098,9.3628 9.805,9.7458 9.382,9.8838 C8.903,10.0398 8.441,10.2308 7.997,10.4528 C7.603,10.6508 7.131,10.5958 6.82,10.2838 L6.13,9.5948 C5.743,9.2068 5.115,9.2068 4.727,9.5948 L2.595,11.7278 C2.208,12.1148 2.208,12.7428 2.595,13.1308 L3.304,13.8398 C3.604,14.1388 3.656,14.5938 3.466,14.9718 C3.252,15.3988 3.067,15.8428 2.914,16.3008 C2.777,16.7108 2.412,16.9998 1.98,16.9998 L0.992,16.9998 C0.444,16.9998 0,17.4448 0,17.9918 L0,21.0078 C0,21.5558 0.444,21.9998 0.992,21.9998 L1.98,21.9998 C2.412,21.9998 2.777,22.2888 2.914,22.6988 C3.067,23.1568 3.252,23.6008 3.466,24.0288 C3.656,24.4058 3.604,24.8618 3.304,25.1598 L2.595,25.8688 C2.208,26.2568 2.208,26.8848 2.595,27.2728 L4.727,29.4048 C5.115,29.7918 5.743,29.7918 6.13,29.4048 L6.82,28.7158 C7.131,28.4038 7.603,28.3498 7.997,28.5468 C8.45,28.7748 8.923,28.9688 9.412,29.1258 C9.835,29.2628 10.135,29.6368 10.135,30.0808 L10.135,31.0078 C10.135,31.5558 10.579,31.9998 11.127,31.9998 L13.873,31.9998 C14.421,31.9998 14.865,31.5558 14.865,31.0078 L14.865,30.0808 C14.865,29.6368 15.165,29.2628 15.588,29.1258 C16.077,28.9688 16.55,28.7748 17.003,28.5468 C17.397,28.3498 17.869,28.4038 18.18,28.7158 L18.87,29.4048 C19.257,29.7918 19.885,29.7918 20.273,29.4048 L22.405,27.2728 C22.792,26.8848 22.792,26.2568 22.405,25.8688 L21.696,25.1598 C21.396,24.8608 21.344,24.4058 21.534,24.0278 C21.748,23.6008 21.933,23.1568 22.086,22.6988 C22.223,22.2888 22.588,21.9998 23.02,21.9998 L24.008,21.9998 C24.556,21.9998 25,21.5558 25,21.0078"/>
    <path fill="#FFF" d="M12.5,24 C10.015,24 8,21.985 8,19.5 C8,17.015 10.015,15 12.5,15 C14.985,15 17,17.015 17,19.5 C17,21.985 14.985,24 12.5,24"/>
  </g>
</svg>
