<svg xmlns="http://www.w3.org/2000/svg" width="153" height="80" viewBox="0 0 153 80">
  <g fill="none" fill-rule="evenodd">
    <polygon fill="#9ED1FF" points="113 44.866 113 65 40 65 40 44.866 75.707 43.674"/>
    <polygon fill="#BDE0FF" points="113 25.991 113 44.991 40 44.914 40 25.991 75.427 24.601"/>
    <g transform="translate(34 7)">
      <path fill="#6C48EF" d="M6,15.2412 L6,18.9912 L79,18.9912 L78.99,15.2302 C78.984,12.8872 77.083,10.9912 74.74,10.9912 L10.25,10.9912 C7.903,10.9912 6,12.8932 6,15.2412"/>
      <path fill="#FFF" d="M12.0168 16L11.9828 16C11.4428 16 10.9998 15.558 10.9998 15.017L10.9998 14.983C10.9998 14.442 11.4428 14 11.9828 14L12.0168 14C12.5578 14 12.9998 14.442 12.9998 14.983L12.9998 15.017C12.9998 15.558 12.5578 16 12.0168 16M16.0168 16L15.9828 16C15.4428 16 14.9998 15.558 14.9998 15.017L14.9998 14.983C14.9998 14.442 15.4428 14 15.9828 14L16.0168 14C16.5578 14 16.9998 14.442 16.9998 14.983L16.9998 15.017C16.9998 15.558 16.5578 16 16.0168 16M20.0168 16L19.9828 16C19.4428 16 18.9998 15.558 18.9998 15.017L18.9998 14.983C18.9998 14.442 19.4428 14 19.9828 14L20.0168 14C20.5578 14 20.9998 14.442 20.9998 14.983L20.9998 15.017C20.9998 15.558 20.5578 16 20.0168 16"/>
      <path fill="#1791FF" d="M47.3162,16.0059 C47.3162,19.0409 44.8562,21.5009 41.8212,21.5009 C38.7852,21.5009 36.3252,19.0409 36.3252,16.0059 C36.3252,12.9709 38.7852,10.5099 41.8212,10.5099 C44.8562,10.5099 47.3162,12.9709 47.3162,16.0059"/>
      <path fill="#FFF" d="M64.2607,46.5293 C63.2667,46.5293 62.3197,46.7273 61.4527,47.0813 C59.9257,43.9373 56.7127,41.7653 52.9837,41.7653 C50.7107,41.7653 48.6267,42.5703 46.9997,43.9103 L46.9997,18.2663 L37.9997,18.2663 L37.9997,42.8423 C36.4457,41.7103 34.5367,41.0343 32.4657,41.0343 C28.4967,41.0343 25.1077,43.4913 23.7197,46.9653 C22.9407,46.6873 22.1037,46.5293 21.2297,46.5293 C17.1107,46.5293 13.7707,49.8693 13.7707,53.9873 C13.7707,58.1063 17.1107,61.4453 21.2297,61.4453 C22.1457,61.4453 23.0187,61.2723 23.8297,60.9703 L23.8297,61.4453 L60.7277,61.4453 L60.7277,60.5563 C61.7797,61.1233 62.9827,61.4453 64.2607,61.4453 C68.3797,61.4453 71.7187,58.1063 71.7187,53.9873 C71.7187,49.8693 68.3797,46.5293 64.2607,46.5293"/>
      <path fill="#D8EDFF" d="M71.6489,53 L71.5979,53 L68.2979,53 L13.3509,53 C11.4999,53 9.9999,54.5 9.9999,56.352 C9.9999,58.202 11.4999,59.702 13.3509,59.702 L67.2379,58.922 L67.0079,60.207 L71.6489,59.702 C73.4999,59.702 74.9999,58.202 74.9999,56.352 C74.9999,54.5 73.4999,53 71.6489,53"/>
      <path fill="#6C48EF" d="M80.2188,63 L4.7808,63 C2.1408,63 -0.0002,60.864 -0.0002,58.229 C-0.0002,57.556 0.5438,57.008 1.2188,57 L34.9998,57 L42.9998,59 L49.9998,57 L83.7818,57 C84.4568,57.008 84.9998,57.556 84.9998,58.229 C84.9998,60.864 82.8598,63 80.2188,63"/>
      <path fill="#5834DB" d="M47,59.9912 L38,59.9912 C36.343,59.9912 35,58.6472 35,56.9912 L50,56.9912 C50,58.6472 48.657,59.9912 47,59.9912"/>
      <path fill="#1F77FF" d="M47.1042,30 L37.8962,30 C36.6242,30 35.5942,28.97 35.5942,27.698 L42.5002,26.931 L49.4062,27.698 C49.4062,28.97 48.3752,30 47.1042,30"/>
      <path fill="#4BAAFF" d="M54.7778,28 L30.2218,28 C29.3748,28 28.6878,27.313 28.6878,26.465 C28.6878,23.463 29.5758,20.528 31.2418,18.03 C32.5218,16.109 34.6788,14.955 36.9878,14.955 L48.0118,14.955 C50.3208,14.955 52.4778,16.109 53.7588,18.03 C55.4238,20.528 56.3128,23.463 56.3128,26.465 C56.3128,27.313 55.6258,28 54.7778,28"/>
      <path fill="#1791FF" d="M48.7832,6.3838 C48.7482,6.3208 48.7182,6.2538 48.6822,6.1918 C48.6822,6.1908 48.6812,6.1908 48.6812,6.1908 C48.6452,6.1248 48.6022,6.0648 48.5652,5.9998 L36.4342,5.9998 C36.3982,6.0648 36.3552,6.1248 36.3192,6.1898 C36.3192,6.1898 36.3182,6.1908 36.3182,6.1918 C36.2782,6.2558 36.2472,6.3208 36.2112,6.3838 C36.1412,6.5048 36.0692,6.6258 36.0092,6.7468 C34.7032,9.2658 34.0002,12.0948 34.0002,14.9998 L34.0002,27.9998 L51.0002,27.9998 L51.0002,14.9998 C51.0002,11.9528 50.2212,8.9958 48.7832,6.3838"/>
      <path fill="#9ED1FF" d="M47.1367,3.873 C46.0857,2.528 44.8337,1.322 43.4117,0.303 C43.1407,0.102 42.8247,0.009 42.4997,0.009 C42.1757,0.009 41.8587,0.102 41.5877,0.303 C40.1667,1.322 38.9147,2.528 37.8647,3.873 C37.3307,4.548 36.8567,5.26 36.4347,6 L48.5657,6 C48.1427,5.26 47.6697,4.548 47.1367,3.873"/>
      <path fill="#FFF" d="M47,17.5 C47,19.985 44.985,22 42.5,22 C40.015,22 38,19.985 38,17.5 C38,15.015 40.015,13 42.5,13 C44.985,13 47,15.015 47,17.5"/>
    </g>
  </g>
</svg>
